<?xml version="1.0" encoding="utf-8"?>
<!-- Generator: Adobe Illustrator 22.1.0, SVG Export Plug-In . SVG Version: 6.00 Build 0)  -->
<svg version="1.1" id="Layer_1" xmlns="http://www.w3.org/2000/svg" xmlns:xlink="http://www.w3.org/1999/xlink" x="0px" y="0px"
	 viewBox="0 0 640 480" style="enable-background:new 0 0 640 480;" xml:space="preserve">
<style type="text/css">
	.st0{font-family:'AdventPro-Bold';}
	.st1{font-size:96px;}
</style>
<text transform="matrix(1 0 0 1 54.0191 263.4036)" class="st0 st1">EVERYWHERE</text>
<g>
	<path d="M73.9,290.1c2-1.2,4-1.7,5.8-1.7c1.7,0,3.1,0.6,4.1,1.7c1,1.1,1.5,2.5,1.5,4.2v12.5h-2v-12.3c0-1.1-0.2-2-0.7-2.6
		c-0.5-0.7-1-1.1-1.7-1.3s-1.2-0.3-1.6-0.3s-0.8,0-1.3,0.1c-0.5,0-1.1,0.2-2,0.5l-1.3,0.6c0.4,0.8,0.6,1.8,0.6,2.8v12.5h-2v-12.3
		c0-1.2-0.3-2.2-0.9-2.9c-0.7-0.8-1.8-1.2-3.3-1.2c-1.5,0-2.9,0.4-4.4,1.2v15.3h-2v-18h2l-0.2,1.2c1.7-0.9,3.3-1.4,5-1.4
		S72.8,288.9,73.9,290.1z"/>
	<path d="M151.6,307c-5.3,0-7.9-2.1-7.9-6.4v-3c0-2.4,0.8-4,2.5-4.8c0.9-0.4,1.7-0.6,2.6-0.6c2.8,0,5.1,0.7,6.8,2
		c0-1.3-0.4-2.4-1.2-3.1c-0.8-0.8-2.2-1.2-4.4-1.2l0.1-1.5c1.9,0,3.4,0.2,4.3,0.7c0.5,0.3,0.9,0.5,1.3,0.8c0.4,0.3,0.7,0.6,0.9,1
		c0.2,0.4,0.4,0.8,0.5,1.1c0.1,0.3,0.2,0.8,0.3,1.3c0.1,0.8,0.1,1.7,0.1,2.6v10.7C155,306.9,153.1,307,151.6,307z M155.5,305v-9.3
		c-2-1-4-1.5-6.1-1.7c-0.1,0-0.3,0-0.4,0c-0.9,0-1.7,0.3-2.3,0.8c-0.6,0.6-1,1.5-1,2.8v3.1c0,2,0.9,3.3,2.6,3.9
		c1,0.4,2.1,0.5,3.4,0.5C152.9,305.2,154.2,305.2,155.5,305z"/>
	<path d="M225.6,314.2l-0.5-1.5c1.6-0.6,2.4-1.8,2.4-3.7v-4.5c-1,1.8-2.6,2.6-4.8,2.6c-2.2,0-3.8-0.6-5-1.7c-1.2-1.2-1.8-2.8-1.8-5
		v-5.4c0-2.1,0.6-3.7,1.9-4.9c1.2-1.2,2.9-1.7,5.1-1.7c2.2,0,3.7,0.8,4.8,2.4l-0.1-2.1h2V309c0,1.4-0.3,2.6-0.9,3.4
		C228,313.2,227,313.8,225.6,314.2z M227.5,300.4v-5.9c0-1.5-0.5-2.6-1.4-3.3c-1-0.7-2.1-1.1-3.4-1.1s-2.4,0.4-3.3,1.2
		c-0.9,0.8-1.4,2.1-1.4,3.8v5.5c0,1.5,0.4,2.7,1.3,3.4c0.9,0.8,2,1.2,3.3,1.2c1.4,0,2.5-0.4,3.5-1.2
		C227,303.1,227.5,302,227.5,300.4z"/>
	<path d="M295.8,307c-5.3,0-7.9-2.1-7.9-6.4v-3c0-2.4,0.8-4,2.5-4.8c0.9-0.4,1.7-0.6,2.6-0.6c2.8,0,5.1,0.7,6.8,2
		c0-1.3-0.4-2.4-1.2-3.1c-0.8-0.8-2.2-1.2-4.4-1.2l0.1-1.5c1.9,0,3.4,0.2,4.3,0.7c0.5,0.3,0.9,0.5,1.3,0.8c0.4,0.3,0.7,0.6,0.9,1
		c0.2,0.4,0.4,0.8,0.5,1.1c0.1,0.3,0.2,0.8,0.3,1.3c0.1,0.8,0.1,1.7,0.1,2.6v10.7C299.3,306.9,297.3,307,295.8,307z M299.7,305v-9.3
		c-2-1-4-1.5-6.1-1.7c-0.1,0-0.3,0-0.4,0c-0.9,0-1.7,0.3-2.3,0.8c-0.6,0.6-1,1.5-1,2.8v3.1c0,2,0.9,3.3,2.6,3.9
		c1,0.4,2.1,0.5,3.4,0.5C297.2,305.2,298.4,305.2,299.7,305z"/>
	<path d="M373.3,306.6h-13.2v-1.8l9.9-14.4h-9.6v-1.8h12.1v1.8l-10,14.4h10.7V306.6z"/>
	<path d="M434.1,282.3c0,0.3-0.1,0.6-0.4,0.8c-0.2,0.2-0.5,0.4-0.8,0.4c-0.3,0-0.6-0.1-0.8-0.4c-0.2-0.3-0.4-0.5-0.4-0.8
		c0-0.3,0.1-0.6,0.4-0.8c0.2-0.2,0.5-0.4,0.9-0.4c0.3,0,0.6,0.1,0.8,0.4C434,281.7,434.1,282,434.1,282.3z M433.9,306.6h-2v-18h2
		V306.6z"/>
	<path d="M494.4,289.8c1.2-1,2.9-1.5,5.1-1.5c1.2,0,2.3,0.2,3.2,0.7c2,0.9,3.1,2.7,3.1,5.2v12.5h-2v-12.3c0-1.2-0.3-2.2-1-2.9
		c-0.8-0.8-2-1.3-3.7-1.3c-1.6,0-3.2,0.4-4.6,1.2v15.3h-2v-18h2L494.4,289.8z"/>
	<path d="M570.2,305.3c1.7,0,3.4-0.5,5.3-1.5l0.8,1.5c-1.8,1.1-3.8,1.7-5.8,1.7c-4.2,0-6.3-1.8-6.3-5.3v-7.4c0-1.9,0.6-3.5,1.8-4.5
		c1.2-1.1,2.8-1.6,4.8-1.6s3.5,0.5,4.7,1.6c1.1,1.1,1.7,2.6,1.7,4.4v4.7l-10.9,0.6v2.2c0,1.3,0.5,2.2,1.4,2.8
		C568.3,305.1,569.2,305.3,570.2,305.3z M575.2,297.2v-3.1c0-1-0.3-1.9-0.8-2.5c-0.6-0.7-1.1-1.1-1.7-1.3c-0.6-0.2-1.2-0.3-1.8-0.3
		c-1.3,0-2.4,0.4-3.3,1.1c-0.9,0.7-1.3,1.8-1.3,3.4v3.2L575.2,297.2z"/>
</g>
</svg>
